<svg width="430" height="430" viewBox="0 0 430 430" fill="none" xmlns="http://www.w3.org/2000/svg">
<mask id="path-1-inside-1_405_173" fill="white">
<path fill-rule="evenodd" clip-rule="evenodd" d="M225.08 137.639C228.879 137.639 232.503 138.387 235.812 139.744C236.387 139.979 237.003 140.097 237.624 140.088C237.754 140.087 237.884 140.086 238.014 140.086C245.727 140.086 252.72 143.17 257.826 148.171C258.364 148.698 259.023 149.086 259.744 149.3C266.471 151.304 272.15 155.741 275.76 161.589C276.109 162.154 276.575 162.638 277.128 163.006C284.737 168.082 289.75 176.745 289.75 186.578C289.75 188.695 289.517 190.758 289.077 192.742C288.93 193.402 288.93 194.087 289.077 194.747C289.517 196.731 289.75 198.794 289.75 200.911C289.75 210.028 285.441 218.138 278.748 223.317C277.847 224.015 277.23 225.022 277.018 226.142C274.534 239.244 263.024 249.151 249.199 249.151C247.931 249.151 246.899 250.257 247.1 251.509L248.289 258.9C248.676 261.304 246.819 263.483 244.384 263.483H233.596C231.547 263.483 229.859 261.907 229.516 259.887C227.014 245.145 217.884 239.284 209.906 237.534C209.502 237.446 209.087 237.436 208.676 237.476C207.748 237.568 206.806 237.615 205.854 237.615C195.122 237.615 185.785 231.645 180.982 222.844C179.971 220.991 177.828 219.973 175.753 220.358C174.066 220.672 172.326 220.836 170.548 220.836C154.91 220.836 142.233 208.159 142.233 192.521C142.233 186.388 144.183 180.71 147.497 176.074C147.845 175.586 148.096 175.034 148.234 174.451C150.421 165.193 157.153 157.691 165.944 154.43C166.506 154.221 167.023 153.905 167.464 153.499C172.507 148.861 179.237 146.029 186.628 146.029C187.412 146.029 188.173 145.753 188.775 145.25C193.686 141.153 200.006 138.688 206.903 138.688C209.047 138.688 211.136 138.926 213.145 139.378C213.994 139.569 214.881 139.517 215.702 139.229C218.637 138.199 221.793 137.639 225.08 137.639Z"/>
</mask>
<path d="M188.775 145.25L191.308 148.287L188.775 145.25ZM165.944 154.43L167.319 158.138L165.944 154.43ZM167.464 153.499L164.787 150.589L167.464 153.499ZM147.497 176.074L144.279 173.774L147.497 176.074ZM148.234 174.451L152.083 175.36L148.234 174.451ZM209.906 237.534L209.059 241.397L209.906 237.534ZM208.676 237.476L209.065 241.412L208.676 237.476ZM247.1 251.509L243.196 252.137L247.1 251.509ZM289.077 192.742L285.216 191.885L289.077 192.742ZM289.077 194.747L292.938 193.89L289.077 194.747ZM180.982 222.844L184.454 220.95L180.982 222.844ZM175.753 220.358L175.031 216.47L175.753 220.358ZM275.76 161.589L272.395 163.667L275.76 161.589ZM277.018 226.142L280.904 226.879L277.018 226.142ZM257.826 148.171L255.059 150.997L257.826 148.171ZM259.744 149.3L260.873 145.51L259.744 149.3ZM248.289 258.9L244.384 259.528L248.289 258.9ZM213.145 139.378L212.277 143.236L213.145 139.378ZM215.702 139.229L214.392 135.497L215.702 139.229ZM235.812 139.744L234.312 143.403L235.812 139.744ZM237.624 140.088L237.571 136.134L237.624 140.088ZM237.312 136.084C233.535 134.536 229.402 133.684 225.08 133.684V141.594C228.355 141.594 231.47 142.238 234.312 143.403L237.312 136.084ZM238.014 136.131C237.866 136.131 237.719 136.132 237.571 136.134L237.678 144.043C237.79 144.041 237.902 144.041 238.014 144.041V136.131ZM260.594 145.346C254.778 139.65 246.803 136.131 238.014 136.131V144.041C244.651 144.041 250.662 146.69 255.059 150.997L260.594 145.346ZM279.125 159.512C275.014 152.852 268.547 147.796 260.873 145.51L258.615 153.091C264.395 154.812 269.285 158.629 272.395 163.667L279.125 159.512ZM293.704 186.578C293.704 175.368 287.985 165.495 279.322 159.716L274.933 166.296C281.489 170.67 285.795 178.122 285.795 186.578H293.704ZM292.938 193.599C293.44 191.335 293.704 188.985 293.704 186.578H285.795C285.795 188.405 285.594 190.18 285.216 191.885L292.938 193.599ZM293.704 200.911C293.704 198.504 293.44 196.154 292.938 193.89L285.216 195.604C285.594 197.309 285.795 199.084 285.795 200.911H293.704ZM281.168 226.445C288.787 220.549 293.704 211.303 293.704 200.911H285.795C285.795 208.752 282.094 215.727 276.328 220.189L281.168 226.445ZM249.199 253.105C264.959 253.105 278.072 241.812 280.904 226.879L273.132 225.405C270.996 236.675 261.088 245.196 249.199 245.196V253.105ZM252.194 258.272L251.005 250.881L243.196 252.137L244.384 259.528L252.194 258.272ZM233.596 267.438H244.384V259.528H233.596V267.438ZM209.059 241.397C212.464 242.144 216.027 243.748 218.994 246.661C221.933 249.545 224.491 253.912 225.617 260.548L233.415 259.225C232.04 251.12 228.782 245.185 224.535 241.016C220.317 236.875 215.325 234.674 210.753 233.671L209.059 241.397ZM205.854 241.57C206.937 241.57 208.008 241.517 209.065 241.412L208.286 233.541C207.487 233.62 206.676 233.66 205.854 233.66V241.57ZM177.511 224.738C182.978 234.758 193.618 241.57 205.854 241.57V233.66C196.626 233.66 188.591 228.531 184.454 220.95L177.511 224.738ZM170.548 224.791C172.57 224.791 174.551 224.604 176.476 224.247L175.031 216.47C173.581 216.74 172.082 216.881 170.548 216.881V224.791ZM138.278 192.521C138.278 210.343 152.726 224.791 170.548 224.791V216.881C157.094 216.881 146.188 205.975 146.188 192.521H138.278ZM144.279 173.774C140.502 179.059 138.278 185.536 138.278 192.521H146.188C146.188 187.239 147.864 182.361 150.714 178.374L144.279 173.774ZM164.569 150.722C154.55 154.438 146.88 162.982 144.385 173.541L152.083 175.36C153.962 167.404 159.755 160.944 167.319 158.138L164.569 150.722ZM186.628 142.074C178.206 142.074 170.53 145.305 164.787 150.589L170.142 156.41C174.483 152.417 180.267 149.984 186.628 149.984V142.074ZM206.903 134.733C199.047 134.733 191.837 137.545 186.241 142.214L191.308 148.287C195.535 144.761 200.966 142.643 206.903 142.643V134.733ZM214.013 135.52C211.722 135.004 209.341 134.733 206.903 134.733V142.643C208.753 142.643 210.551 142.848 212.277 143.236L214.013 135.52ZM225.08 133.684C221.341 133.684 217.742 134.322 214.392 135.497L217.011 142.961C219.531 142.077 222.245 141.594 225.08 141.594V133.684ZM186.628 149.984C188.339 149.984 189.996 149.382 191.308 148.287L186.241 142.214C186.349 142.124 186.485 142.074 186.628 142.074V149.984ZM167.319 158.138C168.362 157.751 169.321 157.164 170.142 156.41L164.787 150.589C164.724 150.646 164.65 150.692 164.569 150.722L167.319 158.138ZM150.714 178.374C151.362 177.467 151.827 176.443 152.083 175.36L144.385 173.541C144.365 173.626 144.329 173.705 144.279 173.774L150.714 178.374ZM210.753 233.671C209.858 233.475 209.015 233.469 208.286 233.541L209.065 241.412C209.088 241.41 209.104 241.409 209.115 241.409C209.126 241.408 209.131 241.408 209.13 241.408C209.129 241.408 209.103 241.407 209.059 241.397L210.753 233.671ZM233.596 259.528C233.594 259.528 233.595 259.528 233.598 259.529C233.601 259.529 233.602 259.53 233.601 259.529C233.599 259.528 233.582 259.521 233.556 259.498C233.498 259.446 233.436 259.351 233.415 259.225L225.617 260.548C226.247 264.266 229.417 267.438 233.596 267.438V259.528ZM249.199 245.196C245.736 245.196 242.57 248.25 243.196 252.137L251.005 250.881C251.227 252.264 250.126 253.105 249.199 253.105V245.196ZM285.216 191.885C284.944 193.109 284.944 194.379 285.216 195.604L292.938 193.89C292.916 193.794 292.916 193.695 292.938 193.599L285.216 191.885ZM184.454 220.95C182.623 217.595 178.788 215.772 175.031 216.47L176.476 224.247C176.869 224.174 177.319 224.388 177.511 224.738L184.454 220.95ZM272.395 163.667C273.042 164.715 273.908 165.612 274.933 166.296L279.322 159.716C279.243 159.663 279.176 159.593 279.125 159.512L272.395 163.667ZM276.328 220.189C274.661 221.48 273.524 223.338 273.132 225.405L280.904 226.879C280.936 226.706 281.033 226.55 281.168 226.445L276.328 220.189ZM255.059 150.997C256.057 151.974 257.279 152.693 258.615 153.091L260.873 145.51C260.767 145.478 260.671 145.421 260.594 145.346L255.059 150.997ZM244.384 259.528V267.438C249.254 267.438 252.967 263.08 252.194 258.272L244.384 259.528ZM212.277 143.236C213.849 143.59 215.49 143.495 217.011 142.961L214.392 135.497C214.271 135.54 214.138 135.548 214.013 135.52L212.277 143.236ZM234.312 143.403C235.378 143.84 236.523 144.059 237.678 144.043L237.571 136.134C237.484 136.135 237.396 136.119 237.312 136.084L234.312 143.403Z" fill="#5B5CF1" mask="url(#path-1-inside-1_405_173)"/>
<path fill-rule="evenodd" clip-rule="evenodd" d="M220.471 138.012C218.83 138.281 217.235 138.691 215.702 139.229C214.881 139.517 213.994 139.569 213.145 139.378C211.136 138.926 209.047 138.687 206.903 138.687C200.006 138.687 193.686 141.153 188.775 145.25C188.173 145.753 187.412 146.028 186.628 146.028C179.237 146.028 172.507 148.861 167.464 153.499C167.023 153.905 166.506 154.221 165.944 154.43C157.671 157.498 151.222 164.322 148.668 172.831C148.475 173.474 148.965 174.127 149.368 174.665L149.371 174.668C151.626 177.675 158.975 183.963 169.62 183.963C170.537 183.963 171.28 184.706 171.28 185.623C171.28 186.539 170.537 187.283 169.62 187.283C167.323 187.283 165.163 187.023 163.152 186.579C162.367 186.405 161.68 187.168 162.028 187.892C162.838 189.58 163.804 191.013 164.805 191.764C165.539 192.314 165.687 193.355 165.137 194.088C164.587 194.821 163.547 194.97 162.814 194.42C161.16 193.18 159.912 191.155 159.035 189.329C158.558 188.335 158.159 187.333 157.846 186.433C157.454 185.308 156.651 184.365 155.595 183.812C153.77 182.856 152.173 181.789 150.826 180.728C148.709 179.061 145.381 179.254 144.355 181.746C142.987 185.067 142.233 188.706 142.233 192.521C142.233 208.159 154.91 220.836 170.548 220.836C171.471 220.836 172.383 220.791 173.284 220.705C175.529 220.49 176.807 218.205 176.338 215.998C176.104 214.897 175.902 213.755 175.753 212.599C175.151 207.925 175.357 202.593 178.25 198.736C178.8 198.002 179.84 197.854 180.574 198.404C181.307 198.954 181.456 199.994 180.906 200.727C178.819 203.509 178.472 207.721 179.045 212.175C179.609 216.555 181.012 220.772 181.955 223.197C182.072 223.499 182.133 223.829 182.193 224.158C182.282 224.646 182.371 225.134 182.649 225.529C187.769 232.837 196.253 237.615 205.854 237.615C206.806 237.615 207.748 237.568 208.676 237.476C209.087 237.435 209.502 237.446 209.906 237.534C213.426 238.306 217.171 239.878 220.471 242.661V223.652C211.983 213.767 202.347 215.696 198.65 217.775C197.851 218.225 196.839 217.941 196.39 217.142C195.94 216.344 196.224 215.332 197.023 214.882C201.448 212.393 211.402 210.552 220.471 218.876V199.402C216.211 196.746 213.27 193.333 211.923 191.161C211.44 190.382 211.68 189.359 212.459 188.876C213.238 188.392 214.261 188.632 214.744 189.411C215.711 190.971 217.678 193.306 220.471 195.386V179.273C211.533 179.466 203.741 182.673 199.562 185.359C198.791 185.855 197.764 185.632 197.268 184.861C196.773 184.089 196.996 183.063 197.767 182.567C202.266 179.674 210.725 176.155 220.471 175.949V138.012ZM198.89 157.72C201.035 157.496 202.827 159.189 203.458 161.251C203.907 162.72 204.589 164.235 205.564 165.767C206.056 166.541 207.082 166.769 207.855 166.276C208.628 165.784 208.856 164.758 208.364 163.985C204.188 157.422 206.65 151.386 208.274 149.297C208.837 148.574 208.707 147.531 207.983 146.968C207.259 146.405 206.217 146.536 205.654 147.259C204.991 148.111 204.267 149.369 203.706 150.926C203.06 152.719 201.516 154.15 199.618 154.316C178.675 156.149 169.811 167.293 168.023 173.548C167.771 174.43 168.282 175.348 169.163 175.6C170.045 175.852 170.963 175.342 171.215 174.46C172.533 169.849 179.825 159.71 198.89 157.72Z" fill="#5B5CF1"/>
<path d="M220.471 176.758H253.572V164.722" stroke="#5B5CF1" stroke-width="4.74586"/>
<path d="M220.471 221.897H259.591V230.924" stroke="#5B5CF1" stroke-width="4.74586"/>
<path d="M220.471 197.823H253.572L270.123 181.272" stroke="#5B5CF1" stroke-width="4.74586"/>
<path d="M235.519 142.153V152.685H244.546" stroke="#5B5CF1" stroke-width="4.74586"/>
<circle cx="253.573" cy="164.721" r="3.00919" fill="#5B5CF1"/>
<circle cx="271.629" cy="179.767" r="3.00919" fill="#5B5CF1"/>
<circle cx="259.592" cy="230.924" r="3.00919" fill="#5B5CF1"/>
<circle cx="244.545" cy="152.685" r="3.00919" fill="#5B5CF1"/>
<path d="M220.471 209.859H234.013" stroke="#5B5CF1" stroke-width="4.74586"/>
<path d="M220.471 185.786H234.013" stroke="#5B5CF1" stroke-width="4.74586"/>
<path d="M220.471 164.722H234.013" stroke="#5B5CF1" stroke-width="4.74586"/>
<rect x="76.9774" y="107.977" width="276.842" height="181.925" rx="9.8872" stroke="#5B5CF1" stroke-width="3.95488"/>
<rect x="75" y="299.789" width="280.797" height="23.7293" rx="11.8646" fill="#5B5CF1"/>
<rect x="189.692" y="307.699" width="51.4135" height="7.90976" rx="3.95488" fill="#F5F5F5"/>
</svg>
